{"title":"Happythankyoumoreplease.2010.BDRip.XviD.AC3.HQ.Hive-CM8","uid":6125957,"size":1599472322,"categoryP":"video","categoryS":"movies","magnet":"?xt=urn:btih:06f586d740179b5c7b487bdca50d9f1e76415ae6&amp;dn=Happythankyoumoreplease.2010.BDRip.XviD.AC3.HQ.Hive-CM8&amp;tr=udp%3A%2F%2Ftracker.openbittorrent.com%3A80&amp;tr=udp%3A%2F%2Fopen.demonii.com%3A1337&amp;tr=udp%3A%2F%2Ftracker.coppersurfer.tk%3A6969&amp;tr=udp%3A%2F%2Fexodus.desync.com%3A6969","seeders":0,"leechers":1,"uploader":"TvTeam","files":5,"time":1295941923,"description":". \n  &lt;a href=&quot;\nhttp://www.torrentday.com/&quot; rel=&quot;nofollow&quot; target=&quot;_NEW&quot;&gt;\nhttp://www.torrentday.com/&lt;/a&gt;        :     The Hottest Private Tracker On The Net!!!\n &lt;a href=&quot;\nhttp://www.torrentday.com&quot; rel=&quot;nofollow&quot; target=&quot;_NEW&quot;&gt;\nhttp://www.torrentday.com&lt;/a&gt;          :     Once &amp; For all ;)\n\n\n               www . TorrentDay . Com \n\n(((((((((((((= Enjoy No RAR releases =))))))))))))))))))))\n\n\n...................................NFO:....................................\n\n.[img]http://img821.imageshack.us/img821/833/htymp.jpg[/img]\n\nHappythankyoumoreplease 2010 BDRip XviD AC3 HQ Hive-CM8\n\n\n\n[b]Thx Hive\n\nCM8 Doing It Right The First Time :D\n\nWhy download a touched up rip of a rip BRrip\nGet the real deal BDRip\nEnjoy\n\nSource Bluray\n\nVideo: 720x400 @bitrate 1700 2pass\nAudio: DTS to AC3 5.1 @448\nSample: yes included[/b]\n &lt;a href=&quot;\nhttp://www.imdb.com/title/tt1481572/&quot; rel=&quot;nofollow&quot; target=&quot;_NEW&quot;&gt;\nhttp://www.imdb.com/title/tt1481572/&lt;/a&gt;\n\n\nGeneral\nComplete name                    : Happythankyoumoreplease.2010.BDRip.XviD.AC3.HQ.Hive-CM8.avi\nFormat                           : AVI\nFormat/Info                      : Audio Video Interleave\nFile size                        : 1.48 GiB\nDuration                         : 1h 38mn\nOverall bit rate                 : 2 156 Kbps\nWriting application              : Nandub v1.0rc2\nWriting library                  : Nandub build 1853/release\n\nVideo\nID                               : 0\nFormat                           : MPEG-4 Visual\nFormat profile                   : Advanced Simple@L5\nFormat settings, BVOP            : Yes\nFormat settings, QPel            : Yes\nFormat settings, GMC             : No warppoints\nFormat settings, Matrix          : Default (H.263)\nMuxing mode                      : Packed bitstream\nCodec ID                         : XVID\nCodec ID/Hint                    : XviD\nDuration                         : 1h 38mn\nBit rate                         : 1 699 Kbps\nWidth                            : 720 pixels\nHeight                           : 400 pixels\nDisplay aspect ratio             : 16:9\nFrame rate                       : 23.976 fps\nColor space                      : YUV\nChroma subsampling               : 4:2:0\nBit depth                        : 8 bits\nScan type                        : Progressive\nBits/(Pixel*Frame)               : 0.246\nStream size                      : 1.17 GiB (79%)\nWriting library                  : XviD 1.2.1 (UTC 2008-12-04)\n\nAudio\nID                               : 1\nFormat                           : AC-3\nFormat/Info                      : Audio Coding 3\nMode extension                   : CM (complete main)\nCodec ID                         : 2000\nDuration                         : 1h 38mn\nBit rate mode                    : Constant\nBit rate                         : 448 Kbps\nChannel(s)                       : 6 channels\nChannel positions                : Front: L C R, Side: L R, LFE\nSampling rate                    : 48.0 KHz\nBit depth                        : 16 bits\nStream size                      : 316 MiB (21%)\nAlignment                        : Split accross interleaves\nInterleave, duration             : 42 ms (1.00 video frame)\nInterleave, preload duration     : 500 ms\n\n\n\n\nMalin Akerman ... Annie\nMichael Algieri ... Rasheen\nJakob Appelman ... School Boy\nBram Barouh ... Spencer\nDana Barron ... The Gynecologist\nSunah Bilsted ... Receptionist\nNicolina Capitanio ... Girl Playing in Park\nLina Carollo ... Restaurant Patron\nTodd DiCiurcio ... Rasheen's Artwork  \n\n\n\nCaptures a generational moment - young people on the cusp of truly growing up, \ntiring of their reflexive cynicism, each in their own ways struggling to connect \nand define what it means to love and be loved.\n\n\n\n[img]http://img832.imageshack.us/img832/3227/hahajs.png[/img]\n[img]http://img3.imageshack.us/img3/1825/29537610.png[/img]\n[img]http://img200.imageshack.us/img200/7118/hahahakw.png[/img]\n[img]http://img838.imageshack.us/img838/1673/hahahahaha.png[/img]\n[img]http://img703.imageshack.us/img703/9002/hahahahahahav.png[/img]\n[img]http://img708.imageshack.us/img708/9421/hahahahahahaha.png[/img]\n\n\n\n\n\n\nGreetz\n\niNK,LUSi,,MAGNET,CLASSiFiED,THC,LEGi0N,IMAGiNE,ViSiON,WBZ,FLAWL3SS,NOVA\nRapeseed,D2U,SAFC,goldadvance,MEMORY100,KaN1vE,Unevano,Pinnz,Wayne,Mr Hive\nand all P2P groups \nGreat Work Guys :D","torrent":{"xt":"urn:btih:06f586d740179b5c7b487bdca50d9f1e76415ae6","amp;dn":"Happythankyoumoreplease.2010.BDRip.XviD.AC3.HQ.Hive-CM8","amp;tr":["udp%3A%2F%2Ftracker.openbittorrent.com%3A80","udp%3A%2F%2Fopen.demonii.com%3A1337","udp%3A%2F%2Ftracker.coppersurfer.tk%3A6969","udp%3A%2F%2Fexodus.desync.com%3A6969"],"infoHash":"06f586d740179b5c7b487bdca50d9f1e76415ae6","infoHashBuffer":{"type":"Buffer","data":[6,245,134,215,64,23,155,92,123,72,123,220,165,13,159,30,118,65,90,230]},"announce":[],"urlList":[]}}